<svg width="91" height="61" viewBox="0 0 91 61" fill="none" xmlns="http://www.w3.org/2000/svg">
<g clip-path="url(#clip0_144_2406)">
<path d="M0.132812 60.2453C2.04159 56.4149 1.76922 52.4446 1.76922 48.5045C1.76922 45.2766 1.75192 42.0488 1.78219 38.8209C1.80813 36.0643 1.285 33.4175 0.230089 30.9041C0.372761 30.8029 0.428965 30.7319 0.480845 30.7319C5.80726 30.7836 11.1358 30.7771 16.4623 30.9299C18.4035 30.9859 20.336 31.4636 21.9486 32.6622C25.7057 35.4554 25.4679 41.3516 21.4904 44.2201C20.7965 44.7193 20.0139 45.0959 19.173 45.5865C19.3049 45.8942 19.4281 46.217 19.5794 46.5248C21.0407 49.4836 22.4955 52.4489 23.9785 55.397C24.9166 57.2606 25.978 59.0402 27.8284 60.355C26.914 60.355 25.9997 60.355 25.0831 60.355C23.2111 60.355 21.3369 60.3185 19.4648 60.3722C18.7039 60.3938 18.3062 60.1355 17.9841 59.4534C16.2093 55.6897 14.3243 51.9755 12.6231 48.1796C12.0394 46.8798 11.3045 46.3418 9.93826 46.5979C9.69615 46.6431 9.44756 46.6453 9.08007 46.6775C9.04548 51.2396 8.6326 55.7952 10.6776 60.2431H0.132812V60.2453ZM9.04116 38.5885C9.04116 40.0927 9.04116 41.5947 9.04116 43.0989C9.04116 46.0126 9.03683 45.9739 11.994 45.6877C14.1557 45.4768 15.6149 44.4374 16.3434 42.4039C16.5725 41.7647 16.8427 41.1213 16.9357 40.4585C17.7722 34.4074 15.8916 31.1903 10.0593 31.5432C10.0226 31.5454 9.98798 31.5475 9.95123 31.5432C9.24436 31.4614 9.01738 31.7778 9.02819 32.4707C9.06277 34.5107 9.04116 36.5507 9.03899 38.5907L9.04116 38.5885Z" fill="white"/>
<path d="M34.5968 27.2563H26.4191C26.404 27.0906 26.3543 26.9507 26.3888 26.8324C27.7096 22.1842 27.1433 17.4242 27.193 12.7073C27.2146 10.6264 25.4745 9.55043 23.3084 10.0862C21.5791 10.5145 20.6928 11.599 20.7317 13.3614C20.8138 17.0498 20.9046 20.7382 21.0646 24.4222C21.1035 25.3389 21.4191 26.2427 21.6266 27.2391H13.4468C13.4079 27.1358 13.3495 27.0605 13.3646 27.0088C14.5557 23.0106 14.2077 18.9069 14.1947 14.8269C14.1882 12.7697 13.5484 10.8954 12.1562 9.13726C15.0118 8.34106 17.6924 7.59435 20.5458 6.80029V10.5511C20.6344 10.5898 20.7209 10.6264 20.8095 10.6651C21.0149 10.4133 21.2181 10.1594 21.4278 9.91195C23.5635 7.39637 26.2937 6.55067 29.4758 7.207C32.0719 7.74067 33.6608 9.70321 33.7084 12.335C33.7537 14.7731 33.6219 17.2177 33.7537 19.6472C33.877 21.926 34.238 24.1941 34.4974 26.4665C34.5255 26.7076 34.5579 26.9464 34.5968 27.252V27.2563Z" fill="white"/>
<path d="M10.3456 27.2625C10.2678 27.2689 9.98895 27.312 9.71225 27.312C6.5886 27.3163 3.46712 27.3141 0.548828 27.3141C2.39492 18.1621 2.37114 9.12407 0.57693 0H10.35C8.37416 9.06382 8.3893 18.1255 10.3456 27.2625Z" fill="white"/>
<path d="M73.0737 21.6285C72.3712 24.0149 71.098 25.7515 69.0789 26.7887C63.5947 29.6013 54.9025 27.4731 54.3794 18.6051C54.0897 13.688 56.2406 9.65745 60.363 7.85846C65.1792 5.75605 71.4287 7.19137 73.0521 13.8472C73.4434 15.4547 73.2986 15.5816 71.6924 15.5773C68.5601 15.5687 65.4278 15.5601 62.2977 15.5537C61.9107 15.5537 61.5216 15.5537 61.0115 15.5537C61.1304 18.1661 61.4222 20.6687 63.6271 22.1794C66.7162 24.2968 69.8852 23.6986 73.0781 21.6306L73.0737 21.6285ZM63.8973 14.7596C63.8973 14.7467 63.8973 14.7316 63.8973 14.7187C64.615 14.7187 65.3435 14.7897 66.0439 14.6843C66.3401 14.6413 66.82 14.2152 66.8048 13.9849C66.7227 12.5345 66.5995 11.0756 66.3379 9.64669C66.1477 8.60732 65.51 7.81111 64.3427 7.682C63.3504 7.57225 62.3734 8.21352 61.9388 9.47023C61.5216 10.6731 61.2493 11.9406 61.0461 13.1995C60.7932 14.7661 60.8515 14.7725 62.3885 14.7596C62.89 14.7553 63.3937 14.7596 63.8952 14.7596H63.8973Z" fill="white"/>
<path d="M46.2982 48.5627H34.303C33.7366 50.6349 34.9991 54.0306 36.7349 55.2594C39.2208 57.0218 42.8482 56.8044 46.2528 54.5557C46.0756 55.0786 45.9848 55.4229 45.8443 55.7457C44.3073 59.2813 40.693 61.2761 36.7392 60.9727C32.8763 60.6757 29.9299 59.0058 28.4189 55.4337C26.7781 51.5538 27.1132 47.7256 29.4997 44.1556C32.6017 39.5161 39.1192 38.9264 42.6904 41.5345C44.9839 43.2087 46.2442 45.5048 46.2982 48.5648V48.5627ZM40.1655 47.7578C39.9126 45.9051 39.7526 44.2545 39.4392 42.6342C39.2381 41.5991 38.6069 40.7685 37.4266 40.6953C36.2658 40.6243 35.4465 41.3323 35.1352 42.32C34.6575 43.8392 34.4046 45.4295 34.0868 46.9939C33.9809 47.5168 34.2252 47.7729 34.8045 47.7643C36.4539 47.7406 38.1011 47.7557 40.1655 47.7557V47.7578Z" fill="white"/>
<path d="M74.459 9.14343C77.3578 8.33861 80.0448 7.5919 82.9047 6.79785V11.7128C85.0578 9.46191 86.7136 6.99798 90.1356 7.00659C89.9086 9.23596 89.6903 11.3556 89.4655 13.5527C88.5122 12.9458 87.6929 12.3261 86.7893 11.8742C85.3042 11.1296 84.366 11.2286 83.5251 12.1087C83.3219 12.3218 83.1187 12.6596 83.1274 12.9351C83.2571 17.0839 83.4106 21.235 83.5965 25.3817C83.6224 25.9778 83.8494 26.5652 84.0029 27.2452H75.5744C76.8152 23.5203 76.465 19.7394 76.5321 15.9843C76.5753 13.5591 76.251 11.2566 74.459 9.14343Z" fill="white"/>
<path d="M48.0721 19.9609C49.0556 17.1871 50.1948 14.4564 50.945 11.6223C51.2562 10.4474 50.7331 9.0551 50.5839 7.70801H54.8771C54.8771 7.8156 54.9052 7.90813 54.8727 7.94472C52.9597 10.1074 51.8248 12.6961 50.7374 15.3193C49.1594 19.126 47.5381 22.9155 45.945 26.7179C45.7266 27.2387 45.5256 27.6325 44.8187 27.6432C44.0708 27.654 43.8395 27.2602 43.606 26.6856C41.8053 22.2334 40.0219 17.7746 38.1585 13.3481C37.3587 11.448 36.3794 9.6232 35.4629 7.72522H45.0954C44.1205 10.2236 44.7387 12.5412 45.6726 14.8416C46.3535 16.5179 46.9869 18.2136 47.6397 19.9007C47.7824 19.9201 47.9272 19.9416 48.0699 19.9609H48.0721Z" fill="white"/>
</g>
<defs>
<clipPath id="clip0_144_2406">
<rect width="90" height="61" fill="white" transform="translate(0.132812)"/>
</clipPath>
</defs>
</svg>
