<svg width="93" height="39" viewBox="0 0 93 39" fill="none" xmlns="http://www.w3.org/2000/svg">
<path d="M1.09668 21.5563C4.51817 21.6471 8.24388 20.6861 8.24388 19.0252C8.24388 18.3215 7.63921 17.8977 4.7961 16.2596C2.56143 14.9959 0 13.2177 0 10.244C0 6.26016 5.23928 1.95092 14.1667 1.17533L15.1169 7.08114C10.7152 7.08114 8.50303 7.83025 8.50303 9.27927C8.50303 10.1267 9.62224 10.664 11.9057 11.7839C13.7911 12.7221 16.8183 14.3149 16.8183 17.5005C16.8183 21.386 12.7621 26.3498 2.05064 27.5907L1.09668 21.5525V21.5563ZM83.2388 27.5945C90.3184 26.7735 93 23.4933 93 20.9244C93 18.8171 90.9944 17.7653 89.7513 17.1486C88.2415 16.4071 87.5016 16.0477 87.5016 15.4878C87.5016 14.5306 88.9663 14.0349 91.877 14.0349L91.2498 10.1343C85.3495 10.6451 81.8905 13.4939 81.8905 16.1271C81.8905 18.0907 83.5843 19.2711 85.0603 20.1072C86.9382 21.1893 87.3401 21.4692 87.3401 21.9346C87.3401 23.0318 84.8763 23.6674 82.6116 23.603L83.2425 27.5983L83.2388 27.5945ZM16.9197 24.3408C17.9675 22.5361 27.7287 5.9083 31.154 0.498108H31.5033C35.7435 6.91846 45.2268 21.9043 46.6953 23.9171L39.7284 28.0674C38.7031 26.3346 36.9078 23.168 36.5623 22.5664L25.9372 23.1717C25.6593 23.6674 24.4011 26.4292 23.6087 28.0939L16.9197 24.3484V24.3408ZM34.1586 17.6178C33.1558 15.5786 31.83 13.074 31.1991 11.6212C30.3352 13.3085 29.1033 15.9304 28.1945 17.9205L34.1586 17.6178ZM59.2583 26.9627C59.1869 26.2627 59.0743 23.0999 59.0743 22.608V20.3115C59.0743 16.2596 60.9146 12.934 63.0366 11.2012C64.6441 9.82029 66.8111 8.85553 68.3472 8.53017L66.1351 1.24721C63.4309 2.0228 61.1963 3.35832 59.5174 4.99273C57.8236 6.63092 56.3964 8.50368 55.6302 10.8721H55.3486C54.511 8.11021 53.2303 6.26016 51.9271 4.94355C50.1281 3.14267 47.6605 2.01902 45.3094 1.24343L42.5827 8.52638C43.7245 8.85175 45.1705 9.41547 46.5676 10.3764C49.1779 12.1092 51.1571 15.7904 51.1571 20.3796V21.9232C51.1571 22.3924 51.0182 26.1379 50.9731 26.9589H59.2658L59.2583 26.9627ZM80.3356 24.564L80.1666 24.7229C79.0061 25.8277 76.3395 27.534 74.0447 27.8782C73.4851 27.9653 72.9292 28.0031 72.4034 28.0031C68.2045 28.0031 65.1886 25.2412 64.5314 20.7882C64.1596 18.2988 64.6478 16.0817 65.9398 14.383C67.1191 12.8318 68.9031 11.8103 70.9687 11.4963C71.4908 11.4206 71.9941 11.379 72.471 11.379C76.7902 11.379 79.3028 14.5117 79.5469 20.1942L79.5582 20.4629L69.9472 21.9005C70.4617 23.3533 71.4983 24.0343 73.1884 24.0343C73.5752 24.0343 73.9884 24.0003 74.4578 23.9284C76.0841 23.6863 78.6417 22.2221 78.6643 22.2032L78.9272 22.0557L80.3394 24.5602L80.3356 24.564ZM74.5968 17.4475C74.2813 16.3201 73.5227 15.7488 72.3509 15.7488C72.1631 15.7488 71.964 15.7639 71.765 15.7942C70.503 15.9834 69.6693 16.8762 69.4815 18.2156L74.6006 17.4475H74.5968Z" fill="white"/>
<path d="M3.48097 31.9907C3.48848 31.9075 3.57486 31.8432 3.64622 31.8432H3.79269C3.83776 31.8432 3.92039 31.881 3.95044 31.934L6.07995 35.9254H6.09873L8.22824 31.934C8.25453 31.8772 8.33716 31.8432 8.38598 31.8432H8.53246C8.60757 31.8432 8.6902 31.9075 8.69771 31.9907L9.7343 38.203C9.75308 38.3241 9.67045 38.4073 9.56153 38.4073H8.47988C8.39725 38.4073 8.31462 38.3316 8.30711 38.2598L7.89398 35.4033H7.8752L6.33534 38.3997C6.30905 38.4565 6.22642 38.5019 6.1776 38.5019H6.01235C5.95601 38.5019 5.88465 38.4565 5.8546 38.3997L4.30348 35.4033H4.2847L3.87908 38.2598C3.87157 38.3354 3.79645 38.4073 3.70631 38.4073H2.62465C2.51574 38.4073 2.43311 38.3241 2.45189 38.203L3.48848 31.9907H3.48097Z" fill="white"/>
<path d="M14.9102 32.1118C14.9102 32.021 14.9853 31.9378 15.0829 31.9378H18.88C18.9814 31.9378 19.0528 32.021 19.0528 32.1118V33.1182C19.0528 33.209 18.9776 33.2922 18.88 33.2922H16.3373V34.4386H18.4293C18.5194 34.4386 18.6021 34.5218 18.6021 34.6126V35.619C18.6021 35.7211 18.5194 35.793 18.4293 35.793H16.3373V37.0415H18.88C18.9814 37.0415 19.0528 37.1248 19.0528 37.2156V38.2219C19.0528 38.3127 18.9776 38.396 18.88 38.396H15.0829C14.9815 38.396 14.9102 38.3127 14.9102 38.2219V32.1042V32.1118Z" fill="white"/>
<path d="M24.2734 32.0097C24.2734 31.9189 24.3561 31.8432 24.4462 31.8432H24.5852C24.6753 31.8432 24.7429 31.9075 24.8143 31.9832L28.3372 35.392H28.3447V32.1118C28.3447 32.021 28.4198 31.9378 28.5174 31.9378H29.6179C29.708 31.9378 29.7906 32.021 29.7906 32.1118V38.3316C29.7906 38.4414 29.708 38.4981 29.6179 38.4981H29.5277C29.4376 38.4981 29.37 38.4716 29.2986 38.396L25.7307 34.7829H25.7232V38.2295C25.7232 38.3203 25.648 38.4035 25.5504 38.4035H24.4575C24.3636 38.4035 24.2847 38.3203 24.2847 38.2295L24.2772 32.0097H24.2734Z" fill="white"/>
<path d="M36.3175 33.296H35.0067C34.9053 33.296 34.834 33.2128 34.834 33.122V32.1156C34.834 32.0248 34.9091 31.9416 35.0067 31.9416H39.0817C39.1831 31.9416 39.2545 32.0248 39.2545 32.1156V33.122C39.2545 33.2128 39.1794 33.296 39.0817 33.296H37.771V38.2333C37.771 38.3241 37.6884 38.4073 37.5982 38.4073H36.4978C36.4076 38.4073 36.325 38.3241 36.325 38.2333V33.296H36.3175Z" fill="white"/>
<path d="M47.077 31.8432C48.9136 31.8432 50.3783 33.33 50.3783 35.1801C50.3783 37.0302 48.9098 38.4981 47.077 38.4981C45.2442 38.4981 43.7832 37.0302 43.7832 35.1801C43.7832 33.33 45.2404 31.8432 47.077 31.8432ZM47.077 37.0188C48.0873 37.0188 48.9136 36.1865 48.9136 35.1801C48.9136 34.1737 48.0873 33.3225 47.077 33.3225C46.0667 33.3225 45.2517 34.1624 45.2517 35.1801C45.2517 36.1978 46.078 37.0188 47.077 37.0188Z" fill="white"/>
<path d="M55.535 32.1118C55.535 32.021 55.6101 31.9378 55.7078 31.9378H58.4495C59.6138 31.9378 60.4513 32.8344 60.4513 33.9354C60.4513 34.7866 59.948 35.4714 59.0917 35.793L60.3499 38.1425C60.4137 38.2635 60.3499 38.4111 60.1921 38.4111H58.9715C58.8964 38.4111 58.8438 38.3657 58.825 38.3279L57.6044 35.88H56.9697V38.2371C56.9697 38.3279 56.8871 38.4111 56.7969 38.4111H55.704C55.6026 38.4111 55.5312 38.3279 55.5312 38.2371V32.1194L55.535 32.1118ZM58.333 34.6996C58.7086 34.6996 59.0316 34.3932 59.0316 33.9581C59.0316 33.523 58.7124 33.2544 58.333 33.2544H56.9735V34.6958H58.333V34.6996Z" fill="white"/>
<path d="M65.6797 32.1118C65.6797 32.021 65.7623 31.9378 65.8524 31.9378H66.9529C67.0468 31.9378 67.1256 32.021 67.1256 32.1118V38.2295C67.1256 38.3203 67.043 38.4035 66.9529 38.4035H65.8524C65.7586 38.4035 65.6797 38.3203 65.6797 38.2295V32.1118Z" fill="white"/>
<path d="M72.6426 32.0097C72.6426 31.9189 72.7252 31.8432 72.8153 31.8432H72.9543C73.0444 31.8432 73.112 31.9075 73.1834 31.9832L76.7063 35.392H76.7138V32.1118C76.7138 32.021 76.7889 31.9378 76.8866 31.9378H77.987C78.0772 31.9378 78.1598 32.021 78.1598 32.1118V38.3316C78.1598 38.4414 78.0772 38.4981 77.987 38.4981H77.8969C77.8067 38.4981 77.7391 38.4716 77.6678 38.396L74.0998 34.7829H74.0923V38.2295C74.0923 38.3203 74.0172 38.4035 73.9195 38.4035H72.8266C72.7327 38.4035 72.6538 38.3203 72.6538 38.2295L72.6463 32.0097H72.6426Z" fill="white"/>
<path d="M86.6101 31.8545C87.38 31.8545 88.225 32.1761 88.8485 32.7247C88.9311 32.789 88.9386 32.8987 88.8673 32.9744L88.1424 33.75C88.0673 33.8143 87.9696 33.8143 87.8945 33.7576C87.5452 33.436 87.1434 33.3149 86.6927 33.3149C85.6936 33.3149 84.8862 34.1662 84.8862 35.1839C84.8862 36.2016 85.7012 37.0226 86.7039 37.0226C86.9706 37.0226 87.2448 36.9848 87.5189 36.875V36.3378H86.9406C86.8392 36.3378 86.7678 36.2621 86.7678 36.1713V35.2558C86.7678 35.1536 86.8429 35.0817 86.9406 35.0817H88.7846C88.8748 35.0817 88.9499 35.165 88.9499 35.2558L88.9574 37.7414C88.9574 37.8247 88.9198 37.8625 88.8823 37.889C88.8823 37.889 87.9358 38.4905 86.6063 38.4905C84.781 38.4905 83.3125 37.0302 83.3125 35.1801C83.3125 33.33 84.781 31.8545 86.6063 31.8545H86.6101Z" fill="white"/>
</svg>
