<svg width="130" height="73" viewBox="0 0 130 73" fill="none" xmlns="http://www.w3.org/2000/svg">
<g clip-path="url(#clip0_145_2733)">
<path d="M35.5861 60.3042C34.2776 60.3042 33.0781 60.4136 31.8786 60.6325H31.7695V72.781H33.5142V69.1693C34.1685 69.3882 34.8228 69.4976 35.4771 69.4976C38.4213 69.4976 39.9479 67.8559 39.9479 64.682C39.9479 61.727 38.5303 60.3042 35.5861 60.3042ZM38.2032 64.682C38.2032 66.8709 37.3308 67.9654 35.4771 67.9654C34.7137 67.9654 34.0595 67.8559 33.5142 67.5276V62.0553C34.0595 61.9459 34.7137 61.8364 35.4771 61.8364C37.3308 61.8364 38.2032 62.712 38.2032 64.682Z" fill="white"/>
<path d="M42.8919 61.2893L42.6738 60.1948H41.3652V69.4977H43.219V62.8215C43.8733 62.0554 44.7456 61.7271 45.727 61.7271H45.8361V60.1948H45.727C44.5275 60.3043 43.6552 60.6326 42.8919 61.2893Z" fill="white"/>
<path d="M50.5259 60.3042C47.5816 60.3042 46.1641 61.8364 46.1641 64.9009C46.1641 67.9654 47.6907 69.4976 50.5259 69.4976C53.361 69.4976 54.8876 67.9654 54.8876 64.9009C54.8876 61.8364 53.4701 60.3042 50.5259 60.3042ZM53.1429 64.9009C53.1429 66.9804 52.2706 68.0748 50.5259 68.0748C48.7811 68.0748 47.9088 67.0898 47.9088 64.9009C47.9088 62.712 48.7811 61.8364 50.5259 61.8364C52.2706 61.8364 53.1429 62.8214 53.1429 64.9009Z" fill="white"/>
<path d="M60.5571 64.0254H59.1395C58.2672 64.0254 57.94 63.6971 57.94 62.931C57.94 62.1648 58.5943 61.7271 60.1209 61.7271C61.2114 61.7271 62.1928 61.946 63.1742 62.2743H63.2832V60.6326H63.1742C62.1928 60.3043 61.1023 60.1948 60.0119 60.1948C57.5039 60.1948 56.1953 61.0704 56.1953 62.931C56.1953 64.7915 57.1767 65.6671 59.1395 65.6671H60.5571C61.4295 65.6671 61.8656 65.9954 61.8656 66.7615C61.8656 67.5277 61.2114 67.9654 59.7938 67.9654C58.7033 67.9654 57.7219 67.7465 56.7405 67.4182H56.6315V69.0599H56.7405C57.7219 69.3882 58.8124 69.4977 59.9028 69.4977C62.4109 69.4977 63.7194 68.6221 63.7194 66.7615C63.6104 65.0104 62.629 64.0254 60.5571 64.0254Z" fill="white"/>
<path d="M68.8439 60.3042C67.5354 60.3042 66.3359 60.4136 65.1364 60.6325H65.0273V72.781H66.8811V69.1693C67.5354 69.3882 68.1896 69.4976 68.8439 69.4976C71.7881 69.4976 73.3147 67.8559 73.3147 64.682C73.2057 61.727 71.7881 60.3042 68.8439 60.3042ZM71.461 64.682C71.461 66.8709 70.5886 67.9654 68.7349 67.9654C67.9716 67.9654 67.3173 67.8559 66.7721 67.5276V62.0553C67.3173 61.9459 67.9716 61.8364 68.7349 61.8364C70.5886 61.8364 71.461 62.712 71.461 64.682Z" fill="white"/>
<path d="M78.8771 60.3042C75.9329 60.3042 74.4062 61.8364 74.4062 64.7915C74.4062 67.9654 75.9329 69.4976 79.0952 69.4976C80.2947 69.4976 81.167 69.3882 82.0394 69.2787H82.1484V67.7465H82.0394C81.2761 67.9654 80.5128 67.9654 79.6404 67.9654C77.4595 67.9654 76.3691 67.0898 76.26 65.4481H82.3665V65.3387C82.6937 63.4781 82.4756 62.1648 81.7122 61.2892C81.058 60.6325 80.1856 60.3042 78.8771 60.3042ZM80.6218 63.9159H76.26C76.3691 62.4931 77.1324 61.727 78.659 61.727C79.3133 61.727 79.8585 61.9459 80.1856 62.2742C80.5128 62.712 80.6218 63.2592 80.6218 63.9159Z" fill="white"/>
<path d="M85.8548 61.2893L85.6367 60.1948H84.3281V69.4977H86.1819V62.8215C86.8362 62.0554 87.7085 61.7271 88.6899 61.7271H88.799V60.1948H88.6899C87.4904 60.3043 86.6181 60.6326 85.8548 61.2893Z" fill="white"/>
<path d="M91.635 58.1152H89.7812V59.6475H91.635V58.1152Z" fill="white"/>
<path d="M91.635 60.3042H89.7812V69.607H91.635V60.3042Z" fill="white"/>
<path d="M94.5784 58.772H93.3789V66.9804C93.3789 68.622 94.1422 69.4976 95.7779 69.4976H97.0864V67.9654H96.2141C95.5598 67.9654 95.2327 67.637 95.2327 66.8709V61.8364H97.0864V60.3042H95.0146L94.5784 58.772Z" fill="white"/>
<path d="M104.502 60.3042L101.994 67.0898L99.4862 60.3042H97.5234L101.013 69.4976C100.577 70.4826 99.8134 71.1393 98.941 71.5771L98.832 71.6865L99.5953 72.9999H99.7043C101.013 72.5621 102.103 71.5771 102.758 69.8259L106.574 60.4136C106.465 60.3042 104.502 60.3042 104.502 60.3042Z" fill="white"/>
<path d="M6.14398 41.3701C4.83544 41.3701 3.41786 41.589 2.10932 42.0268L1.89123 42.1362V44.6535L2.32741 44.544C3.63595 44.2157 4.94448 43.9968 6.14398 43.9968C9.19723 43.9968 9.19723 45.3101 9.19723 45.6385V46.4046C8.32487 46.1857 7.34347 46.1857 6.25302 46.1857C2.65454 46.1857 0.800781 47.6085 0.800781 50.3446C0.800781 53.8469 3.5269 54.613 5.92589 54.613C7.34347 54.613 8.65201 54.3941 9.74245 53.8469L10.5058 54.613H12.1414V45.7479C12.0324 42.7929 10.0696 41.3701 6.14398 41.3701ZM6.25302 48.5935C7.34347 48.5935 8.32487 48.703 9.19723 48.8124V51.3296C8.32487 51.8769 7.23442 52.0958 5.92589 52.0958C3.96308 52.0958 3.74499 51.1107 3.74499 50.3446C3.74499 49.5785 3.96308 48.5935 6.25302 48.5935Z" fill="white"/>
<path d="M16.5028 36.7734H13.5586V54.613H16.5028V36.7734Z" fill="white"/>
<path d="M20.3199 39.291H18.248V50.8922C18.248 53.3 19.4475 54.6134 21.7375 54.6134H23.7003V52.0961H22.2827C21.7375 52.0961 21.0832 51.8772 21.0832 50.6733V43.7783H23.7003V41.261H20.7561L20.3199 39.291Z" fill="white"/>
<path d="M30.7875 41.3701C26.5347 41.3701 24.4629 43.559 24.4629 47.8274C24.4629 52.3146 26.7528 54.613 31.1146 54.613C32.7503 54.613 34.0588 54.5036 35.2583 54.2847L35.5855 54.1752V51.658L35.1493 51.7674C34.0588 51.9863 32.9684 52.0958 31.8779 52.0958C29.0428 52.0958 27.5161 51.1107 27.4071 48.9218H35.8035V48.5935C36.2397 45.9668 35.9126 43.9968 34.8221 42.7929C34.0588 41.8079 32.6412 41.3701 30.7875 41.3701ZM30.4604 43.7779C31.3327 43.7779 32.096 43.9968 32.5322 44.4346C32.9684 44.8724 33.0774 45.529 33.1865 46.2952H27.5161C27.6252 44.6535 28.6066 43.7779 30.4604 43.7779Z" fill="white"/>
<path d="M40.0569 42.6835L39.7297 41.3701H37.5488V54.613H40.493V45.3101C41.3654 44.4346 42.4558 43.9968 43.7644 43.9968H44.0915V41.4796H43.7644C42.3468 41.3701 41.1473 41.8079 40.0569 42.6835Z" fill="white"/>
<path d="M52.2702 41.3701C50.8526 41.3701 49.326 41.8079 47.9084 42.7929L47.5813 41.3701H45.4004V54.613H48.3446V45.3101C49.326 44.4346 50.4164 43.8874 51.6159 43.8874C53.2516 43.8874 54.0149 44.6535 54.0149 46.2952V54.613H56.9591V46.4046C56.9591 43.1212 55.3235 41.3701 52.2702 41.3701Z" fill="white"/>
<path d="M63.6108 41.3701C62.3022 41.3701 60.8847 41.589 59.5761 42.0268L59.358 42.1362V44.6535L59.7942 44.544C61.1027 44.2157 62.4113 43.9968 63.6108 43.9968C66.664 43.9968 66.664 45.3101 66.664 45.6385V46.4046C65.7917 46.2952 64.8103 46.1857 63.7198 46.1857C60.1213 46.1857 58.2676 47.6085 58.2676 50.4541C58.2676 53.9563 60.9937 54.7224 63.3927 54.7224C64.8103 54.7224 66.1188 54.5036 67.2093 53.9563L67.9726 54.7224H69.4992V45.8574C69.4992 42.7929 67.5364 41.3701 63.6108 41.3701ZM63.7198 48.5935C64.8103 48.5935 65.7917 48.703 66.664 48.8124V51.3296C65.7917 51.8769 64.7012 52.0958 63.3927 52.0958C61.4299 52.0958 61.2118 51.1107 61.2118 50.3446C61.2118 49.5785 61.4299 48.5935 63.7198 48.5935Z" fill="white"/>
<path d="M72.7711 39.291H70.6992V50.8922C70.6992 53.3 71.8987 54.6134 74.1887 54.6134H76.1515V52.0961H74.7339C74.1887 52.0961 73.5344 51.8772 73.5344 50.6733V43.7783H76.0424V41.261H73.0982L72.7711 39.291Z" fill="white"/>
<path d="M78.1133 39.2907H81.0575L81.6027 36.7734H78.1133V39.2907Z" fill="white"/>
<path d="M81.0575 41.3701H78.1133V54.613H81.0575V41.3701Z" fill="white"/>
<path d="M91.6343 41.3701L88.2539 50.4541L84.9826 41.3701H81.8203L86.8364 54.613H89.3444L94.7966 41.3701H91.6343Z" fill="white"/>
<path d="M105.047 42.9024C104.174 41.9173 102.757 41.3701 101.012 41.3701C96.7594 41.3701 94.6875 43.559 94.6875 47.8274C94.6875 52.3146 96.9774 54.613 101.339 54.613C102.975 54.613 104.283 54.5036 105.483 54.2847L105.81 54.1752V51.658L105.374 51.7674C104.283 51.9863 103.193 52.0958 102.103 52.0958C99.2674 52.0958 97.7408 51.1107 97.6317 48.9218H106.573V48.5935C107.01 46.0763 106.137 44.1063 105.047 42.9024ZM100.685 43.7779C101.557 43.7779 102.321 43.9968 102.757 44.4346C103.193 44.8724 103.411 45.529 103.411 46.2952H97.7408C97.8498 44.6535 98.8312 43.7779 100.685 43.7779Z" fill="white"/>
<path d="M129.8 5.47217L113.335 18.0584C111.699 19.4812 110.936 21.3417 110.936 23.0929V72.4527C115.297 71.796 115.734 67.9654 115.734 66.4332V42.9025C115.734 41.0419 116.606 39.2908 118.351 37.9774L126.965 31.4107C128.601 30.2068 129.691 28.2368 129.691 26.1573V11.9294L129.8 5.47217ZM124.784 19.4812V24.5156C124.784 25.9384 124.13 27.3612 122.821 28.3462L118.133 31.8485C117.26 32.5052 115.952 31.8485 115.952 30.754V24.6251C115.952 23.6401 116.279 21.9984 118.023 20.6851L124.784 15.6506V19.4812Z" fill="white"/>
<path d="M106.466 11.9295L90.6543 0V20.3568C90.6543 21.8891 90.6543 24.6252 94.1437 27.033L106.03 36.0075C106.793 36.6642 108.756 38.4153 108.974 42.1364V17.1829C108.974 17.1829 109.192 14.1184 106.466 11.9295ZM104.067 25.8291C104.067 27.2519 102.867 27.4708 102.104 26.8141L97.4151 23.2024C96.1065 22.1079 95.6704 20.6852 95.6704 19.4813V10.1784L102.649 15.4318C103.74 16.1979 104.067 17.1829 104.067 18.1679V25.8291Z" fill="white"/>
</g>
<defs>
<clipPath id="clip0_145_2733">
<rect width="129" height="73" fill="white" transform="translate(0.800781)"/>
</clipPath>
</defs>
</svg>
