<svg width="49" height="18" viewBox="0 0 49 18" fill="none" xmlns="http://www.w3.org/2000/svg">
<path d="M0 0.485107H49V17.4653H0V0.485107Z" fill="#FF0000"/>
<path d="M22.5319 4.08814H24.4591V10.5123H26.9837V12H22.5319V4.08814ZM27.903 12V4.08814H29.8302V12H27.903ZM34.6418 10.0615L36.6141 4.08814H38.6541L35.8477 12H33.4359L30.6295 4.08814H32.6807L34.6418 10.0615ZM44.3059 4.08814V5.63219H41.3868V7.2326H43.9678V8.7203H41.3868V10.4559H44.3059V12H39.4596V4.08814H44.3059Z" fill="white"/>
<path d="M13.8816 8.44951C13.8816 7.4161 13.0486 6.58081 12.0179 6.58081C10.9873 6.58081 10.1543 7.4161 10.1543 8.44951C10.1543 9.48292 10.9873 10.3182 12.0179 10.3182C13.0486 10.3182 13.8816 9.48292 13.8816 8.44951Z" fill="white"/>
<path d="M14.8223 11.2555C15.5378 10.538 15.981 9.54204 15.981 8.44973C15.981 7.3842 15.5645 6.42039 14.8863 5.70825" stroke="white" stroke-width="1.44374" stroke-miterlimit="10"/>
<path d="M9.22127 5.64307C8.50572 6.36056 8.0625 7.35649 8.0625 8.4488C8.0625 9.5304 8.49504 10.5103 9.19457 11.2278" stroke="white" stroke-width="1.44374" stroke-miterlimit="10"/>
<path d="M7.39319 3.95239C6.26646 5.11966 5.57227 6.70458 5.57227 8.45549C5.57227 10.2385 6.29316 11.8502 7.45727 13.0175" stroke="white" stroke-width="1.44374" stroke-miterlimit="10"/>
<path d="M16.5781 13.0224C17.7422 11.8551 18.4631 10.238 18.4631 8.44966C18.4631 6.70411 17.7689 5.11919 16.6475 3.95728" stroke="white" stroke-width="1.44374" stroke-miterlimit="10"/>
</svg>
