<svg width="22" height="17" viewBox="0 0 22 17" fill="none" xmlns="http://www.w3.org/2000/svg">
<path d="M18.6361 1.39641C17.1907 0.734662 15.6648 0.265194 14.0974 0C13.8829 0.383431 13.6888 0.77793 13.5159 1.18185C11.8463 0.930253 10.1484 0.930253 8.47883 1.18185C8.30589 0.777972 8.11182 0.383477 7.89742 0C6.32898 0.267433 4.80206 0.738016 3.35518 1.39987C0.482758 5.64968 -0.295911 9.79393 0.0934237 13.8793C1.77559 15.1222 3.65841 16.0674 5.66004 16.6739C6.11075 16.0677 6.50957 15.4246 6.85227 14.7515C6.20136 14.5083 5.57312 14.2084 4.97481 13.8551C5.13228 13.7409 5.28628 13.6232 5.43509 13.509C7.17602 14.3278 9.07615 14.7523 11 14.7523C12.9238 14.7523 14.8239 14.3278 16.5649 13.509C16.7154 13.6319 16.8694 13.7496 17.0252 13.8551C16.4257 14.209 15.7963 14.5095 15.1442 14.7532C15.4865 15.426 15.8854 16.0686 16.3365 16.6739C18.3398 16.0699 20.2241 15.1251 21.9065 13.8811C22.3634 9.14331 21.1261 5.03712 18.6361 1.39641ZM7.34543 11.3668C6.26048 11.3668 5.36415 10.3823 5.36415 9.17099C5.36415 7.95973 6.22934 6.96649 7.34197 6.96649C8.4546 6.96649 9.34401 7.95973 9.32498 9.17099C9.30594 10.3823 8.45114 11.3668 7.34543 11.3668ZM14.6545 11.3668C13.5679 11.3668 12.675 10.3823 12.675 9.17099C12.675 7.95973 13.5402 6.96649 14.6545 6.96649C15.7689 6.96649 16.6514 7.95973 16.6324 9.17099C16.6133 10.3823 15.7602 11.3668 14.6545 11.3668Z" fill="white"/>
</svg>
