<svg width="20" height="20" viewBox="0 0 20 20" fill="none" xmlns="http://www.w3.org/2000/svg">
<g clip-path="url(#clip0_96_820)">
<path d="M4.52083 6.66675H0.393066V20.0001H4.52083V6.66675Z" fill="white"/>
<path d="M2.44062 4.914C1.09746 4.914 0 3.81654 0 2.457C0 1.09746 1.09746 0 2.44062 0C3.78378 0 4.88124 1.09746 4.88124 2.457C4.88124 3.81654 3.78378 4.914 2.44062 4.914Z" fill="white"/>
<path d="M19.9999 19.9999H15.8885V12.9892C15.8885 11.0728 15.1678 9.9917 13.6444 9.9917C11.9901 9.9917 11.1219 11.1055 11.1219 12.9892V19.9835H7.15796V6.66656H11.1219V8.46836C11.1219 8.46836 12.3177 6.27344 15.135 6.27344C17.9688 6.27344 19.9835 7.99334 19.9835 11.5642V19.9999H19.9999Z" fill="white"/>
</g>
<defs>
<clipPath id="clip0_96_820">
<rect width="20" height="20" fill="white"/>
</clipPath>
</defs>
</svg>
