<svg width="18" height="20" viewBox="0 0 18 20" fill="none" xmlns="http://www.w3.org/2000/svg">
<path d="M12.3593 0C12.4246 2.48131 14.0733 4.42391 16.522 4.89731C16.7505 4.94629 16.9954 4.94629 17.2403 4.96261C17.3382 4.96261 17.3872 4.97894 17.3872 5.09321C17.3872 6.10532 17.3872 7.1011 17.3872 8.11322C17.3872 8.12954 17.3709 8.14587 17.3709 8.17851C16.473 8.19484 15.6078 8.03159 14.759 7.75408C13.8938 7.46024 13.1102 7.03581 12.3593 6.48078C12.3593 6.59505 12.3593 6.66035 12.3593 6.72564C12.3593 8.97841 12.3593 11.2312 12.3756 13.4676C12.3756 14.7083 12.1144 15.8673 11.4288 16.8957C10.0902 18.9036 8.21288 19.8668 5.8132 19.7525C3.15232 19.6219 0.915882 17.8099 0.213934 15.2633C-0.667583 12.08 1.22605 8.71722 4.4093 7.80305C5.22552 7.57451 6.05806 7.49289 6.8906 7.57451C6.9559 7.57451 7.0212 7.59084 7.10282 7.60716C7.10282 8.68457 7.10282 9.76198 7.10282 10.8557C7.03752 10.8394 6.98855 10.8394 6.93958 10.8231C5.0133 10.3333 3.2013 11.7862 3.26659 13.7615C3.31557 15.2306 4.49092 16.4387 5.99276 16.5529C7.42931 16.6672 8.80056 15.6388 9.06175 14.2185C9.11072 13.9737 9.12705 13.7125 9.12705 13.4676C9.12705 9.06003 9.12704 4.66877 9.14337 0.26119C9.14337 0.195893 9.14337 0.0979463 9.15969 0C10.2208 0 11.2982 0 12.3593 0Z" fill="white"/>
</svg>
